<svg id="visual" viewBox="0 0 1920 1080" width="1920" height="1080" xmlns="http://www.w3.org/2000/svg" xmlns:xlink="http://www.w3.org/1999/xlink" version="1.1"><rect x="0" y="0" width="1920" height="1080" fill="#191b1c"></rect><defs><linearGradient id="grad1_0" x1="43.8%" y1="0%" x2="100%" y2="100%"><stop offset="14.444444444444446%" stop-color="#fbae3c" stop-opacity="1"></stop><stop offset="85.55555555555554%" stop-color="#fbae3c" stop-opacity="1"></stop></linearGradient></defs><defs><linearGradient id="grad1_1" x1="43.8%" y1="0%" x2="100%" y2="100%"><stop offset="14.444444444444446%" stop-color="#fbae3c" stop-opacity="1"></stop><stop offset="85.55555555555554%" stop-color="#b4a531" stop-opacity="1"></stop></linearGradient></defs><defs><linearGradient id="grad1_2" x1="43.8%" y1="0%" x2="100%" y2="100%"><stop offset="14.444444444444446%" stop-color="#76953b" stop-opacity="1"></stop><stop offset="85.55555555555554%" stop-color="#b4a531" stop-opacity="1"></stop></linearGradient></defs><defs><linearGradient id="grad1_3" x1="43.8%" y1="0%" x2="100%" y2="100%"><stop offset="14.444444444444446%" stop-color="#76953b" stop-opacity="1"></stop><stop offset="85.55555555555554%" stop-color="#427f48" stop-opacity="1"></stop></linearGradient></defs><defs><linearGradient id="grad1_4" x1="43.8%" y1="0%" x2="100%" y2="100%"><stop offset="14.444444444444446%" stop-color="#18664e" stop-opacity="1"></stop><stop offset="85.55555555555554%" stop-color="#427f48" stop-opacity="1"></stop></linearGradient></defs><defs><linearGradient id="grad1_5" x1="43.8%" y1="0%" x2="100%" y2="100%"><stop offset="14.444444444444446%" stop-color="#18664e" stop-opacity="1"></stop><stop offset="85.55555555555554%" stop-color="#0a4c49" stop-opacity="1"></stop></linearGradient></defs><defs><linearGradient id="grad1_6" x1="43.8%" y1="0%" x2="100%" y2="100%"><stop offset="14.444444444444446%" stop-color="#173337" stop-opacity="1"></stop><stop offset="85.55555555555554%" stop-color="#0a4c49" stop-opacity="1"></stop></linearGradient></defs><defs><linearGradient id="grad1_7" x1="43.8%" y1="0%" x2="100%" y2="100%"><stop offset="14.444444444444446%" stop-color="#173337" stop-opacity="1"></stop><stop offset="85.55555555555554%" stop-color="#191b1c" stop-opacity="1"></stop></linearGradient></defs><defs><linearGradient id="grad2_0" x1="0%" y1="0%" x2="56.3%" y2="100%"><stop offset="14.444444444444446%" stop-color="#fbae3c" stop-opacity="1"></stop><stop offset="85.55555555555554%" stop-color="#fbae3c" stop-opacity="1"></stop></linearGradient></defs><defs><linearGradient id="grad2_1" x1="0%" y1="0%" x2="56.3%" y2="100%"><stop offset="14.444444444444446%" stop-color="#b4a531" stop-opacity="1"></stop><stop offset="85.55555555555554%" stop-color="#fbae3c" stop-opacity="1"></stop></linearGradient></defs><defs><linearGradient id="grad2_2" x1="0%" y1="0%" x2="56.3%" y2="100%"><stop offset="14.444444444444446%" stop-color="#b4a531" stop-opacity="1"></stop><stop offset="85.55555555555554%" stop-color="#76953b" stop-opacity="1"></stop></linearGradient></defs><defs><linearGradient id="grad2_3" x1="0%" y1="0%" x2="56.3%" y2="100%"><stop offset="14.444444444444446%" stop-color="#427f48" stop-opacity="1"></stop><stop offset="85.55555555555554%" stop-color="#76953b" stop-opacity="1"></stop></linearGradient></defs><defs><linearGradient id="grad2_4" x1="0%" y1="0%" x2="56.3%" y2="100%"><stop offset="14.444444444444446%" stop-color="#427f48" stop-opacity="1"></stop><stop offset="85.55555555555554%" stop-color="#18664e" stop-opacity="1"></stop></linearGradient></defs><defs><linearGradient id="grad2_5" x1="0%" y1="0%" x2="56.3%" y2="100%"><stop offset="14.444444444444446%" stop-color="#0a4c49" stop-opacity="1"></stop><stop offset="85.55555555555554%" stop-color="#18664e" stop-opacity="1"></stop></linearGradient></defs><defs><linearGradient id="grad2_6" x1="0%" y1="0%" x2="56.3%" y2="100%"><stop offset="14.444444444444446%" stop-color="#0a4c49" stop-opacity="1"></stop><stop offset="85.55555555555554%" stop-color="#173337" stop-opacity="1"></stop></linearGradient></defs><defs><linearGradient id="grad2_7" x1="0%" y1="0%" x2="56.3%" y2="100%"><stop offset="14.444444444444446%" stop-color="#191b1c" stop-opacity="1"></stop><stop offset="85.55555555555554%" stop-color="#173337" stop-opacity="1"></stop></linearGradient></defs><g transform="translate(1920, 0)"><path d="M0 702C-137.3 692 -274.7 682.1 -351 607.9C-427.3 533.8 -442.7 395.5 -491 283.5C-539.4 171.5 -620.7 85.7 -702 0L0 0Z" fill="#1a262a"></path><path d="M0 614.3C-120.2 605.5 -240.3 596.8 -307.1 532C-373.9 467.1 -387.4 346.1 -429.7 248.1C-472 150 -543.1 75 -614.2 0L0 0Z" fill="#113f41"></path><path d="M0 526.5C-103 519 -206 511.6 -263.2 456C-320.5 400.4 -332 296.6 -368.3 212.6C-404.5 128.6 -465.5 64.3 -526.5 0L0 0Z" fill="#0b594d"></path><path d="M0 438.8C-85.8 432.5 -171.7 426.3 -219.4 380C-267.1 333.6 -276.7 247.2 -306.9 177.2C-337.1 107.2 -387.9 53.6 -438.7 0L0 0Z" fill="#2c734d"></path><path d="M0 351C-68.7 346 -137.3 341 -175.5 304C-213.7 266.9 -221.4 197.8 -245.5 141.8C-269.7 85.7 -310.3 42.9 -351 0L0 0Z" fill="#5b8a42"></path><path d="M0 263.3C-51.5 259.5 -103 255.8 -131.6 228C-160.3 200.2 -166 148.3 -184.1 106.3C-202.3 64.3 -232.8 32.2 -263.2 0L0 0Z" fill="#949e35"></path><path d="M0 175.5C-34.3 173 -68.7 170.5 -87.7 152C-106.8 133.5 -110.7 98.9 -122.8 70.9C-134.8 42.9 -155.2 21.4 -175.5 0L0 0Z" fill="#d7ab33"></path><path d="M0 87.8C-17.2 86.5 -34.3 85.3 -43.9 76C-53.4 66.7 -55.3 49.4 -61.4 35.4C-67.4 21.4 -77.6 10.7 -87.7 0L0 0Z" fill="#fbae3c"></path></g><g transform="translate(0, 1080)"><path d="M0 -702C136.5 -691.6 273 -681.1 351 -607.9C429 -534.8 448.4 -398.8 497.1 -287C545.8 -175.2 623.9 -87.6 702 0L0 0Z" fill="#1a262a"></path><path d="M0 -614.2C119.5 -605.1 238.9 -596 307.1 -532C375.3 -467.9 392.3 -348.9 435 -251.1C477.6 -153.3 545.9 -76.7 614.3 0L0 0Z" fill="#113f41"></path><path d="M0 -526.5C102.4 -518.7 204.8 -510.9 263.2 -456C321.7 -401.1 336.3 -299.1 372.8 -215.3C409.4 -131.4 467.9 -65.7 526.5 0L0 0Z" fill="#0b594d"></path><path d="M0 -438.7C85.3 -432.2 170.7 -425.7 219.4 -380C268.1 -334.2 280.2 -249.2 310.7 -179.4C341.1 -109.5 389.9 -54.8 438.8 0L0 0Z" fill="#2c734d"></path><path d="M0 -351C68.3 -345.8 136.5 -340.6 175.5 -304C214.5 -267.4 224.2 -199.4 248.5 -143.5C272.9 -87.6 312 -43.8 351 0L0 0Z" fill="#5b8a42"></path><path d="M0 -263.2C51.2 -259.3 102.4 -255.4 131.6 -228C160.9 -200.5 168.1 -149.5 186.4 -107.6C204.7 -65.7 234 -32.9 263.3 0L0 0Z" fill="#949e35"></path><path d="M0 -175.5C34.1 -172.9 68.3 -170.3 87.7 -152C107.2 -133.7 112.1 -99.7 124.3 -71.8C136.5 -43.8 156 -21.9 175.5 0L0 0Z" fill="#d7ab33"></path><path d="M0 -87.7C17.1 -86.4 34.1 -85.1 43.9 -76C53.6 -66.8 56 -49.8 62.1 -35.9C68.2 -21.9 78 -11 87.8 0L0 0Z" fill="#fbae3c"></path></g></svg>