<svg id="visual" viewBox="0 0 600 900" width="600" height="900" xmlns="http://www.w3.org/2000/svg" xmlns:xlink="http://www.w3.org/1999/xlink" version="1.1"><rect x="0" y="0" width="600" height="900" fill="#191b1c"></rect><defs><linearGradient id="grad1_0" x1="0%" y1="0%" x2="100%" y2="100%"><stop offset="30%" stop-color="#fbae3c" stop-opacity="1"></stop><stop offset="70%" stop-color="#fbae3c" stop-opacity="1"></stop></linearGradient></defs><defs><linearGradient id="grad1_1" x1="0%" y1="0%" x2="100%" y2="100%"><stop offset="30%" stop-color="#fbae3c" stop-opacity="1"></stop><stop offset="70%" stop-color="#a9a332" stop-opacity="1"></stop></linearGradient></defs><defs><linearGradient id="grad1_2" x1="0%" y1="0%" x2="100%" y2="100%"><stop offset="30%" stop-color="#638e40" stop-opacity="1"></stop><stop offset="70%" stop-color="#a9a332" stop-opacity="1"></stop></linearGradient></defs><defs><linearGradient id="grad1_3" x1="0%" y1="0%" x2="100%" y2="100%"><stop offset="30%" stop-color="#638e40" stop-opacity="1"></stop><stop offset="70%" stop-color="#2c734d" stop-opacity="1"></stop></linearGradient></defs><defs><linearGradient id="grad1_4" x1="0%" y1="0%" x2="100%" y2="100%"><stop offset="30%" stop-color="#09554c" stop-opacity="1"></stop><stop offset="70%" stop-color="#2c734d" stop-opacity="1"></stop></linearGradient></defs><defs><linearGradient id="grad1_5" x1="0%" y1="0%" x2="100%" y2="100%"><stop offset="30%" stop-color="#09554c" stop-opacity="1"></stop><stop offset="70%" stop-color="#15373b" stop-opacity="1"></stop></linearGradient></defs><defs><linearGradient id="grad1_6" x1="0%" y1="0%" x2="100%" y2="100%"><stop offset="30%" stop-color="#191b1c" stop-opacity="1"></stop><stop offset="70%" stop-color="#15373b" stop-opacity="1"></stop></linearGradient></defs><defs><linearGradient id="grad2_0" x1="0%" y1="0%" x2="100%" y2="100%"><stop offset="30%" stop-color="#fbae3c" stop-opacity="1"></stop><stop offset="70%" stop-color="#fbae3c" stop-opacity="1"></stop></linearGradient></defs><defs><linearGradient id="grad2_1" x1="0%" y1="0%" x2="100%" y2="100%"><stop offset="30%" stop-color="#a9a332" stop-opacity="1"></stop><stop offset="70%" stop-color="#fbae3c" stop-opacity="1"></stop></linearGradient></defs><defs><linearGradient id="grad2_2" x1="0%" y1="0%" x2="100%" y2="100%"><stop offset="30%" stop-color="#a9a332" stop-opacity="1"></stop><stop offset="70%" stop-color="#638e40" stop-opacity="1"></stop></linearGradient></defs><defs><linearGradient id="grad2_3" x1="0%" y1="0%" x2="100%" y2="100%"><stop offset="30%" stop-color="#2c734d" stop-opacity="1"></stop><stop offset="70%" stop-color="#638e40" stop-opacity="1"></stop></linearGradient></defs><defs><linearGradient id="grad2_4" x1="0%" y1="0%" x2="100%" y2="100%"><stop offset="30%" stop-color="#2c734d" stop-opacity="1"></stop><stop offset="70%" stop-color="#09554c" stop-opacity="1"></stop></linearGradient></defs><defs><linearGradient id="grad2_5" x1="0%" y1="0%" x2="100%" y2="100%"><stop offset="30%" stop-color="#15373b" stop-opacity="1"></stop><stop offset="70%" stop-color="#09554c" stop-opacity="1"></stop></linearGradient></defs><defs><linearGradient id="grad2_6" x1="0%" y1="0%" x2="100%" y2="100%"><stop offset="30%" stop-color="#15373b" stop-opacity="1"></stop><stop offset="70%" stop-color="#191b1c" stop-opacity="1"></stop></linearGradient></defs><g transform="translate(600, 0)"><path d="M0 351.5C-49.3 350.5 -98.5 349.5 -134.5 324.8C-170.5 300.1 -193.2 251.7 -213.5 213.5C-233.9 175.4 -251.8 147.5 -274.4 113.7C-297 79.8 -324.3 39.9 -351.5 0L0 0Z" fill="#19282c"></path><path d="M0 301.3C-42.2 300.4 -84.5 299.6 -115.3 278.4C-146.2 257.2 -165.6 215.7 -183 183C-200.5 150.4 -215.8 126.5 -235.2 97.4C-254.6 68.4 -277.9 34.2 -301.3 0L0 0Z" fill="#0d4645"></path><path d="M0 251.1C-35.2 250.4 -70.4 249.6 -96.1 232C-121.8 214.3 -138 179.8 -152.5 152.5C-167 125.3 -179.9 105.4 -196 81.2C-212.1 57 -231.6 28.5 -251.1 0L0 0Z" fill="#16644e"></path><path d="M0 200.9C-28.2 200.3 -56.3 199.7 -76.9 185.6C-97.4 171.5 -110.4 143.8 -122 122C-133.6 100.2 -143.9 84.3 -156.8 64.9C-169.7 45.6 -185.3 22.8 -200.9 0L0 0Z" fill="#468148"></path><path d="M0 150.7C-21.1 150.2 -42.2 149.8 -57.7 139.2C-73.1 128.6 -82.8 107.9 -91.5 91.5C-100.2 75.2 -107.9 63.2 -117.6 48.7C-127.3 34.2 -139 17.1 -150.7 0L0 0Z" fill="#849938"></path><path d="M0 100.4C-14.1 100.1 -28.2 99.9 -38.4 92.8C-48.7 85.7 -55.2 71.9 -61 61C-66.8 50.1 -71.9 42.2 -78.4 32.5C-84.9 22.8 -92.6 11.4 -100.4 0L0 0Z" fill="#d1aa32"></path><path d="M0 50.2C-7 50.1 -14.1 49.9 -19.2 46.4C-24.4 42.9 -27.6 36 -30.5 30.5C-33.4 25.1 -36 21.1 -39.2 16.2C-42.4 11.4 -46.3 5.7 -50.2 0L0 0Z" fill="#fbae3c"></path></g><g transform="translate(0, 900)"><path d="M0 -351.5C49 -350.5 98.1 -349.4 134.5 -324.8C171 -300.1 194.8 -251.9 212.8 -212.8C230.8 -173.7 243 -143.8 265.2 -109.8C287.3 -75.9 319.4 -37.9 351.5 0L0 0Z" fill="#19282c"></path><path d="M0 -301.3C42 -300.4 84.1 -299.5 115.3 -278.4C146.6 -257.3 167 -215.9 182.4 -182.4C197.9 -148.9 208.3 -123.2 227.3 -94.1C246.3 -65 273.8 -32.5 301.3 0L0 0Z" fill="#0d4645"></path><path d="M0 -251.1C35 -250.3 70.1 -249.6 96.1 -232C122.1 -214.4 139.2 -179.9 152 -152C164.9 -124.1 173.6 -102.7 189.4 -78.5C205.2 -54.2 228.2 -27.1 251.1 0L0 0Z" fill="#16644e"></path><path d="M0 -200.9C28 -200.3 56 -199.7 76.9 -185.6C97.7 -171.5 111.3 -144 121.6 -121.6C131.9 -99.3 138.9 -82.2 151.5 -62.8C164.2 -43.4 182.5 -21.7 200.9 0L0 0Z" fill="#468148"></path><path d="M0 -150.7C21 -150.2 42 -149.8 57.7 -139.2C73.3 -128.6 83.5 -108 91.2 -91.2C98.9 -74.5 104.1 -61.6 113.6 -47.1C123.1 -32.5 136.9 -16.3 150.7 0L0 0Z" fill="#849938"></path><path d="M0 -100.4C14 -100.1 28 -99.8 38.4 -92.8C48.9 -85.8 55.7 -72 60.8 -60.8C66 -49.6 69.4 -41.1 75.8 -31.4C82.1 -21.7 91.3 -10.8 100.4 0L0 0Z" fill="#d1aa32"></path><path d="M0 -50.2C7 -50.1 14 -49.9 19.2 -46.4C24.4 -42.9 27.8 -36 30.4 -30.4C33 -24.8 34.7 -20.5 37.9 -15.7C41 -10.8 45.6 -5.4 50.2 0L0 0Z" fill="#fbae3c"></path></g></svg>